<svg xmlns="http://www.w3.org/2000/svg" width="51" height="50" fill="none"><rect width="50" height="50" x=".5" fill="#40DDB6" rx="25"/><path fill="#fff" fill-rule="evenodd" d="M37.415 25.069c0-6.337-5.335-11.474-11.915-11.474-6.58 0-11.916 5.137-11.916 11.474 0 5.727 4.357 10.474 10.054 11.335v-8.017h-3.026v-3.318h3.026V22.54c0-2.875 1.78-4.465 4.5-4.465 1.304 0 2.668.224 2.668.224v2.825h-1.503c-1.48 0-1.942.884-1.942 1.792v2.152h3.305l-.528 3.318H27.36v8.019c5.698-.862 10.054-5.609 10.054-11.337Z" clip-rule="evenodd"/></svg>