<svg xmlns="http://www.w3.org/2000/svg" width="46" height="46" fill="none"><rect width="45" height="45" x=".5" y=".5" fill="#40DDB6" rx="22.5"/><path fill="#fff" d="M27.965 13.438a5.078 5.078 0 0 1 3.506 1.404 4.708 4.708 0 0 1 1.46 3.377v9.562a4.708 4.708 0 0 1-1.46 3.377 5.079 5.079 0 0 1-3.506 1.404h-9.93a5.079 5.079 0 0 1-3.506-1.404 4.708 4.708 0 0 1-1.459-3.377v-9.562a4.708 4.708 0 0 1 1.459-3.377c.93-.895 2.19-1.4 3.506-1.404h9.93Zm0-1.912h-9.93c-3.823 0-6.95 3.012-6.95 6.693v9.562c0 3.681 3.127 6.693 6.95 6.693h9.93c3.823 0 6.95-3.012 6.95-6.693v-9.562c0-3.681-3.127-6.693-6.95-6.693Z"/><path fill="#fff" d="M29.454 18.22a1.53 1.53 0 0 1-.828-.242 1.449 1.449 0 0 1-.548-.644 1.385 1.385 0 0 1-.085-.829c.058-.278.2-.534.408-.734.208-.2.474-.338.762-.393.29-.055.589-.027.861.082.272.108.505.292.668.528a1.397 1.397 0 0 1-.184 1.812 1.49 1.49 0 0 1-.483.31c-.181.073-.375.11-.571.11ZM23 19.174c.785 0 1.553.224 2.207.645a3.86 3.86 0 0 1 1.463 1.716c.3.7.379 1.468.226 2.21a3.784 3.784 0 0 1-1.088 1.959c-.555.535-1.263.899-2.033 1.047-.77.147-1.57.071-2.295-.218a3.943 3.943 0 0 1-1.783-1.409 3.725 3.725 0 0 1-.67-2.125 3.759 3.759 0 0 1 1.165-2.703A4.056 4.056 0 0 1 23 19.175Zm0-1.912c-1.178 0-2.33.336-3.31.967a5.79 5.79 0 0 0-2.195 2.575 5.54 5.54 0 0 0-.338 3.314 5.675 5.675 0 0 0 1.63 2.938 6.032 6.032 0 0 0 3.05 1.57 6.172 6.172 0 0 0 3.443-.326 5.915 5.915 0 0 0 2.674-2.114A5.587 5.587 0 0 0 28.958 23c0-1.522-.628-2.98-1.745-4.057A6.076 6.076 0 0 0 23 17.263Z"/></svg>