<svg xmlns="http://www.w3.org/2000/svg" width="51" height="50" fill="none"><rect width="50" height="50" x=".5" fill="#40DDB6" rx="25"/><path fill="#fff" d="M38.267 17.207c-.958.416-1.971.69-3.008.814a5.187 5.187 0 0 0 2.305-2.852 10.519 10.519 0 0 1-3.328 1.25 5.273 5.273 0 0 0-3.825-1.633c-2.895 0-5.238 2.31-5.238 5.155-.002.396.043.79.135 1.176a14.932 14.932 0 0 1-10.798-5.39 5.09 5.09 0 0 0-.713 2.591c0 1.788.933 3.368 2.34 4.293a5.186 5.186 0 0 1-2.381-.643v.064c0 2.5 1.808 4.58 4.202 5.053-.45.12-.914.18-1.38.181-.33 0-.66-.031-.984-.096.665 2.048 2.602 3.538 4.896 3.58a10.617 10.617 0 0 1-7.757 2.133 14.825 14.825 0 0 0 8.019 2.33c9.648 0 14.918-7.857 14.918-14.67 0-.224-.006-.448-.016-.666a10.557 10.557 0 0 0 2.613-2.67Z"/></svg>