<svg xmlns="http://www.w3.org/2000/svg" width="42" height="42" fill="none"><path stroke="#40DDB6" stroke-miterlimit="10" stroke-width="2" d="m40.629 11.743-2.36 3.058-.494 3.832-3.832.493-3.057 2.36-3.058-2.36-3.832-.493-.493-3.832-2.36-3.058 2.36-3.057.493-3.832 3.832-.493L30.886 2l3.057 2.36 3.832.494.493 3.832 2.36 3.057Z"/><path stroke="#40DDB6" stroke-miterlimit="10" stroke-width="2" d="M36.185 18.32v11.515l-5.3-3.55-5.3 3.55V18.32M23.005 21.567a8.81 8.81 0 0 1-15.975-4.4L5.996 3.968h15.911M6.79 17.19H4.582c-1.08 0-1.99-.808-2.117-1.88L1.132 8.993A2.131 2.131 0 0 1 3.25 6.612h2.945"/><path stroke="#40DDB6" stroke-miterlimit="10" stroke-width="2" d="M17.983 24.854s.463 5.355 3.24 7.734M13.796 24.854s-.463 5.355-3.24 7.734"/><path stroke="#40DDB6" stroke-miterlimit="10" stroke-width="2" d="M24.088 36.874H7.693v-2.413c0-1.187.888-2.149 1.983-2.149h12.429c1.095 0 1.983.962 1.983 2.15v2.412ZM25.96 40.17H5.82v-1.147c0-1.187.887-2.149 1.982-2.149h16.175c1.096 0 1.983.962 1.983 2.15v1.146Z"/><path stroke="#40DDB6" stroke-miterlimit="10" stroke-width="2" d="M5.82 40.17h20.14v-1.147c0-1.187-.887-2.149-1.982-2.149H7.803c-1.095 0-1.983.962-1.983 2.15v1.146ZM26.754 13.818l2.512 1.851 6.016-7.668"/></svg>