<svg xmlns="http://www.w3.org/2000/svg" width="42" height="41" fill="none"><path stroke="#40DDB6" stroke-miterlimit="10" stroke-width="2" d="M27.41 39.88H12.343a4.967 4.967 0 0 1-4.967-4.968V10.39M4.026 1h25.471a4.835 4.835 0 0 1 4.836 4.835v10.88"/><path stroke="#40DDB6" stroke-miterlimit="10" stroke-width="2" d="M7.358 9.544H1V4.18a3.18 3.18 0 0 1 6.359 0v5.365ZM40.117 25.653l-1.429 2.14-.503 2.524-2.524.504-2.14 1.428-2.14-1.428-2.524-.504-.503-2.523-1.43-2.14 1.43-2.14.503-2.525 2.524-.503 2.14-1.428 2.14 1.428 2.524.503.503 2.524 1.429 2.14Z"/><path stroke="#40DDB6" stroke-miterlimit="10" stroke-width="2" d="M37.164 30.174v8.776l-3.643-2.44-3.643 2.44v-8.776M13.999 8.335h11.989M13.999 14.495h11.989M13.999 20.589h11.989M13.999 26.55h7.948M13.999 32.644h7.948"/></svg>