<svg xmlns="http://www.w3.org/2000/svg" width="72" height="72" fill="none"><circle cx="36" cy="36" r="36" fill="#6B77E5"/><path stroke="#fff" stroke-linecap="round" stroke-linejoin="round" stroke-width="2" d="M25.25 50.781a1.344 1.344 0 0 1-1.343-1.343v-7.173a4.636 4.636 0 0 1-2.369.437 4.703 4.703 0 1 1 2.369-8.936v-7.172a1.344 1.344 0 0 1 1.343-1.344h7.844a4.636 4.636 0 0 1-.436-2.368 4.703 4.703 0 1 1 8.936 2.368h7.844a1.344 1.344 0 0 1 1.343 1.344v7.172a4.636 4.636 0 0 0-2.368-.437 4.704 4.704 0 1 0 2.369 8.936v7.173a1.344 1.344 0 0 1-1.344 1.343H25.25Z"/></svg>