<svg xmlns="http://www.w3.org/2000/svg" width="72" height="72" fill="none"><circle cx="36" cy="36" r="36" fill="#40DDB6"/><path stroke="#fff" stroke-linecap="round" stroke-linejoin="round" stroke-width="2" d="M49.438 21.219H22.561c-.742 0-1.343.601-1.343 1.343v26.875c0 .743.601 1.344 1.343 1.344h26.875c.743 0 1.344-.601 1.344-1.343V22.561c0-.742-.601-1.343-1.343-1.343ZM44.063 18.531v5.375M27.938 18.531v5.375M21.219 29.281H50.78"/><path stroke="#fff" stroke-linecap="round" stroke-linejoin="round" stroke-width="2" d="M29.953 36h4.703l-2.687 3.36a2.686 2.686 0 1 1-1.898 4.585M38.688 38.016 41.374 36v8.734"/></svg>